HIERARCHY
ROOT hips
{
  OFFSET 0 10.6860622 2.3727825e-15
  CHANNELS 6 Xposition Yposition Zposition Yrotation Xrotation Zrotation
  JOINT leftUpperLeg
  {
    OFFSET 0.6642549969 -0.9402397400000004 0
    CHANNELS 3 Yrotation Xrotation Zrotation
    JOINT leftLowerLeg
    {
      OFFSET 0 -3.997221335632195 0
      CHANNELS 3 Yrotation Xrotation Zrotation
      JOINT leftFoot
      {
        OFFSET -0.13777839790000004 -4.6145792000000005 -0.22186036399999998
        CHANNELS 3 Yrotation Xrotation Zrotation
        JOINT leftToes
        {
          OFFSET -0.03777410834999995 -0.9130806927000008 0.85230013
          CHANNELS 3 Yrotation Xrotation Zrotation
          End Site
          {
            OFFSET -0.03777410834999995 -0.9130806927000008 0.85230013
          }
        }
      }
    }
  }
  JOINT rightUpperLeg
  {
    OFFSET -0.6642778626 -0.9402397400000004 0
    CHANNELS 3 Yrotation Xrotation Zrotation
    JOINT rightLowerLeg
    {
      OFFSET 0 -3.997221452859387 0
      CHANNELS 3 Yrotation Xrotation Zrotation
      JOINT rightFoot
      {
        OFFSET 0.1377926176 -4.6145792000000005 -0.22185782299999995
        CHANNELS 3 Yrotation Xrotation Zrotation
        JOINT rightToes
        {
          OFFSET 0.037780746850000047 -0.9130806927000008 0.85230167
          CHANNELS 3 Yrotation Xrotation Zrotation
          End Site
          {
            OFFSET 0.037780746850000047 -0.9130806927000008 0.85230167
          }
        }
      }
    }
  }
  JOINT spine
  {
    OFFSET 0 0.13988381660000015 0
    CHANNELS 3 Yrotation Xrotation Zrotation
    JOINT chest
    {
      OFFSET 0 0.6191039003973773 0
      CHANNELS 3 Yrotation Xrotation Zrotation
      JOINT upperChest
      {
        OFFSET 0 0.9855186130586943 0
        CHANNELS 3 Yrotation Xrotation Zrotation
        JOINT leftShoulder
        {
          OFFSET 0.1807663869 1.5087829790000005 0
          CHANNELS 3 Yrotation Xrotation Zrotation
          JOINT leftUpperArm
          {
            OFFSET 0.5985063006419806 0 0
            CHANNELS 3 Yrotation Xrotation Zrotation
            JOINT leftLowerArm
            {
              OFFSET 2.2993332369501065 0 0
              CHANNELS 3 Yrotation Xrotation Zrotation
              JOINT leftHand
              {
                OFFSET 2.395047042602395 0 0
                CHANNELS 3 Yrotation Xrotation Zrotation
                JOINT leftIndexProximal
                {
                  OFFSET 0.5766295810000004 0.04556643899499946 0.17265095988184
                  CHANNELS 3 Yrotation Xrotation Zrotation
                  JOINT leftIndexIntermediate
                  {
                    OFFSET 0.2957229000000008 -0.019352197700001517 -0.007932640616999987
                    CHANNELS 3 Yrotation Xrotation Zrotation
                    JOINT leftIndexDistal
                    {
                      OFFSET 0.19008243099999922 -0.012484908149998475 -0.002786250786000012
                      CHANNELS 3 Yrotation Xrotation Zrotation
                      End Site
                      {
                        OFFSET 0.19008243099999922 -0.012484908149998475 -0.002786250786000012
                      }
                    }
                  }
                }
                JOINT leftMiddleProximal
                {
                  OFFSET 0.5834975091000001 0.0524350405149987 0.02204081888183999
                  CHANNELS 3 Yrotation Xrotation Zrotation
                  JOINT leftMiddleIntermediate
                  {
                    OFFSET 0.33880573540000003 -0.019871473270000717 -0.00000971183179999946
                    CHANNELS 3 Yrotation Xrotation Zrotation
                    JOINT leftMiddleDistal
                    {
                      OFFSET 0.20676022730000088 -0.012221336379999448 0.0001471936708000235
                      CHANNELS 3 Yrotation Xrotation Zrotation
                      End Site
                      {
                        OFFSET 0.20676022730000088 -0.012221336379999448 0.0001471936708000235
                      }
                    }
                  }
                }
                JOINT leftLittleProximal
                {
                  OFFSET 0.5344154683999995 -0.012880921405001189 -0.24414037221816004
                  CHANNELS 3 Yrotation Xrotation Zrotation
                  JOINT leftLittleIntermediate
                  {
                    OFFSET 0.21758961730000093 -0.011650919939999227 0.011893592810000034
                    CHANNELS 3 Yrotation Xrotation Zrotation
                    JOINT leftLittleDistal
                    {
                      OFFSET 0.1475273964999999 -0.008152365682999818 0.006001092492999946
                      CHANNELS 3 Yrotation Xrotation Zrotation
                      End Site
                      {
                        OFFSET 0.1475273964999999 -0.008152365682999818 0.006001092492999946
                      }
                    }
                  }
                }
                JOINT leftRingProximal
                {
                  OFFSET 0.5799399463000003 0.026911854694997794 -0.12150566991816003
                  CHANNELS 3 Yrotation Xrotation Zrotation
                  JOINT leftRingIntermediate
                  {
                    OFFSET 0.26167887460000006 -0.013480186499999602 0.010996293000000053
                    CHANNELS 3 Yrotation Xrotation Zrotation
                    JOINT leftRingDistal
                    {
                      OFFSET 0.17667108799999987 -0.008990287899999228 0.0055541023999999065
                      CHANNELS 3 Yrotation Xrotation Zrotation
                      End Site
                      {
                        OFFSET 0.17667108799999987 -0.008990287899999228 0.0055541023999999065
                      }
                    }
                  }
                }
                JOINT leftThumbProximal
                {
                  OFFSET 0.11018806699999972 -0.09448718900500053 0.17047963138184
                  CHANNELS 3 Yrotation Xrotation Zrotation
                  JOINT leftThumbIntermediate
                  {
                    OFFSET 0.31062601459999983 -0.08126270900000132 0.15443142000000007
                    CHANNELS 3 Yrotation Xrotation Zrotation
                    JOINT leftThumbDistal
                    {
                      OFFSET 0.21627175790000086 -0.08833193599999878 0.018771167799999988
                      CHANNELS 3 Yrotation Xrotation Zrotation
                      End Site
                      {
                        OFFSET 0.21627175790000086 -0.08833193599999878 0.018771167799999988
                      }
                    }
                  }
                }
              }
            }
          }
        }
        JOINT neck
        {
          OFFSET 0 1.5463305265074576 0
          CHANNELS 3 Yrotation Xrotation Zrotation
          JOINT head
          {
            OFFSET 0 0.8456443600000344 0
            CHANNELS 3 Yrotation Xrotation Zrotation
            JOINT leftEye
            {
              OFFSET 0.30408573140000006 0.5104519199999995 0.1276382305
              CHANNELS 3 Yrotation Xrotation Zrotation
              End Site
              {
                OFFSET 0.30408573140000006 0.5104519199999995 0.1276382305
              }
            }
            JOINT rightEye
            {
              OFFSET -0.30409491089999996 0.5104519199999995 0.1276379445
              CHANNELS 3 Yrotation Xrotation Zrotation
              End Site
              {
                OFFSET -0.30409491089999996 0.5104519199999995 0.1276379445
              }
            }
            JOINT jaw
            {
              OFFSET -3.155239131000001e-7 -0.11984121820000082 0.60178107
              CHANNELS 3 Yrotation Xrotation Zrotation
              End Site
              {
                OFFSET -3.155239131000001e-7 -0.11984121820000082 0.60178107
              }
            }
          }
        }
        JOINT rightShoulder
        {
          OFFSET -0.1807303465 1.5087829790000005 0
          CHANNELS 3 Yrotation Xrotation Zrotation
          JOINT rightUpperArm
          {
            OFFSET -0.5985063796536958 0 0
            CHANNELS 3 Yrotation Xrotation Zrotation
            JOINT rightLowerArm
            {
              OFFSET -2.2993322059002854 0 0
              CHANNELS 3 Yrotation Xrotation Zrotation
              JOINT rightHand
              {
                OFFSET -2.395045314457259 0 0
                CHANNELS 3 Yrotation Xrotation Zrotation
                JOINT rightIndexProximal
                {
                  OFFSET -0.5764487688300002 0.0441371204405987 0.17361932004999997
                  CHANNELS 3 Yrotation Xrotation Zrotation
                  JOINT rightIndexIntermediate
                  {
                    OFFSET -0.29573011380000047 -0.01934826376999843 -0.007698921482999974
                    CHANNELS 3 Yrotation Xrotation Zrotation
                    JOINT rightIndexDistal
                    {
                      OFFSET -0.19008373999999884 -0.012503266380000655 -0.0026365778999999897
                      CHANNELS 3 Yrotation Xrotation Zrotation
                      End Site
                      {
                        OFFSET -0.19008373999999884 -0.012503266380000655 -0.0026365778999999897
                      }
                    }
                  }
                }
                JOINT rightMiddleProximal
                {
                  OFFSET -0.5834852037300005 0.05211639405060153 0.02307162440000001
                  CHANNELS 3 Yrotation Xrotation Zrotation
                  JOINT rightMiddleIntermediate
                  {
                    OFFSET -0.33880114510000003 -0.019952774050000954 0.0002455003561999819
                    CHANNELS 3 Yrotation Xrotation Zrotation
                    JOINT rightMiddleDistal
                    {
                      OFFSET -0.20675694929999955 -0.012273788999999091 0.00030209124000002766
                      CHANNELS 3 Yrotation Xrotation Zrotation
                      End Site
                      {
                        OFFSET -0.20675694929999955 -0.012273788999999091 0.00030209124000002766
                      }
                    }
                  }
                }
                JOINT rightLittleProximal
                {
                  OFFSET -0.5346811737299992 -0.011214256288399227 -0.24363941305000003
                  CHANNELS 3 Yrotation Xrotation Zrotation
                  JOINT rightLittleIntermediate
                  {
                    OFFSET -0.21757715980000092 -0.011771559690000988 0.01201554387
                    CHANNELS 3 Yrotation Xrotation Zrotation
                    JOINT rightLittleDistal
                    {
                      OFFSET -0.1475201849000004 -0.00822055339600003 0.006082065407000015
                      CHANNELS 3 Yrotation Xrotation Zrotation
                      End Site
                      {
                        OFFSET -0.1475201849000004 -0.00822055339600003 0.006082065407000015
                      }
                    }
                  }
                }
                JOINT rightRingProximal
                {
                  OFFSET -0.5800810755299999 0.027657985680600072 -0.12066365025000003
                  CHANNELS 3 Yrotation Xrotation Zrotation
                  JOINT rightRingIntermediate
                  {
                    OFFSET -0.26166445029999974 -0.013623118409999302 0.011164098990000045
                    CHANNELS 3 Yrotation Xrotation Zrotation
                    JOINT rightRingDistal
                    {
                      OFFSET -0.17666387530000027 -0.009072900100000503 0.005668185599999959
                      CHANNELS 3 Yrotation Xrotation Zrotation
                      End Site
                      {
                        OFFSET -0.17666387530000027 -0.009072900100000503 0.005668185599999959
                      }
                    }
                  }
                }
                JOINT rightThumbProximal
                {
                  OFFSET -0.10997596379000074 -0.09577489355940072 0.16989765924999997
                  CHANNELS 3 Yrotation Xrotation Zrotation
                  JOINT rightThumbIntermediate
                  {
                    OFFSET -0.31036620999999986 -0.08229339117999834 0.15440884469999996
                    CHANNELS 3 Yrotation Xrotation Zrotation
                    JOINT rightThumbDistal
                    {
                      OFFSET -0.21631306399999906 -0.08825326400000111 0.018656797720000014
                      CHANNELS 3 Yrotation Xrotation Zrotation
                      End Site
                      {
                        OFFSET -0.21631306399999906 -0.08825326400000111 0.018656797720000014
                      }
                    }
                  }
                }
              }
            }
          }
        }
      }
    }
  }
}
MOTION
Frames: 8
Frame Time: 0.03333333333333333
-7.201716137501696 -9.499653457898614 -0.4846208943301896 0 3.5002310463002773 -89.99999999999999 -90.10242852373621 -78.44012419804292 85.33794647950197 55.21739707237183 66.88673845974607 41.762482373096084 -21.538907770730532 32.572581221036295 6.925586559508921 0 0 0 43.72151848542584 -65.69507398128225 -114.95328617245674 40.85570764124518 79.76264878517865 125.07033517400386 39.080505732453055 43.52130106192663 17.929037711602238 0 0 0 -0.21659024542886948 -9.94391444329784 0.010158664734519748 -1.0658476431171875 -0.46335414489843857 0.19891693047111933 0 0 0 25.969956270370105 10.152117839604161 -14.017003563501182 -79.92526623902955 0.059892025418373664 -0.014748606361135562 -67.2426047782663 -20.23065369655417 -6.45541005180168 6.3070123540635326 -49.236287439570496 -16.175113553583415 0 0 0 0 0 0 0 0 0 0 0 0 0 0 0 0 0 0 0 0 0 0 0 0 0 0 0 0 0 0 0 0 0 0 0 0 0 0 0 0 0 0 0 0 0 0 20.892762160832135 0 0 -35.249897474592 0 0 0 0 0 0 0 0 0 0 -30.854111265919865 8.169584668124223 13.791157520405479 77.97002994100998 0.20372170686438906 -0.1559134376873933 59.39220264882079 -19.38315008658855 6.1364796624531746 -2.4943253275663633 -49.88125833600086 27.59686407633863 0 0 0 0 0 0 0 0 0 0 0 0 0 0 0 0 0 0 0 0 0 0 0 0 0 0 0 0 0 0 0 0 0 0 0 0 0 0 0 0 0 0 0 0 0
-7.153452497314081 -9.46461162617235 -0.570183545245753 0 3.5002310463002773 -89.99999999999999 -86.15850678288446 -78.24415930016103 81.45689570994766 52.44137393896734 65.4554459358373 38.73851039155774 -21.861323988134142 33.611257449799375 6.570924965752788 0 0 0 43.42729667767781 -65.78946996522193 -113.60274572660796 33.82549247827526 80.25224103704524 120.62454376524802 39.080505732453055 43.52130106192663 17.929037711602238 0 0 0 -0.21659024542886948 -9.94391444329784 0.010158664734519748 -1.0658224546235902 0.5350153187455587 0.18031100400688274 0 0 0 24.65528643227762 9.519025394516547 -14.30299469621322 -79.46665189456526 0.08749150892768456 -0.06802425553116255 -64.88964319938297 -19.977735066298468 -6.390780546944923 4.515339186049728 -49.0472691173212 -16.172271410895632 0 0 0 0 0 0 0 0 0 0 0 0 0 0 0 0 0 0 0 0 0 0 0 0 0 0 0 0 0 0 0 0 0 0 0 0 0 0 0 0 0 0 0 0 0 0 23.274498975099668 0 0 -38.533540836274916 0 0 0 0 0 0 0 0 0 0 -29.199039269934406 7.689825573757696 14.090620523198952 77.65072157871714 0.22160702732414614 -0.09147177104560061 57.59729267966777 -19.198843646925717 6.064486523124794 -0.9426099150680716 -49.73901793409886 26.761267080802675 0 0 0 0 0 0 0 0 0 0 0 0 0 0 0 0 0 0 0 0 0 0 0 0 0 0 0 0 0 0 0 0 0 0 0 0 0 0 0 0 0 0 0 0 0
-7.056926290507935 -9.394527962719822 -0.7413088470768796 0 3.5002310463002773 -89.99999999999999 -78.72102447401797 -77.69736086503822 74.14533608315824 47.79292019536051 62.42598870800274 33.58775817496608 -22.543164824863783 35.68624570926323 5.825435043805918 0 0 0 42.818822782656156 -65.96979555761058 -110.87974323841648 11.239790283449663 81.26846053040502 101.57939922241349 39.080505732453055 43.52130106192663 17.929037711602238 0 0 0 -0.21659024542886948 -9.94391444329784 0.010158664734519748 -1.0667474820171092 2.5341157436536625 0.14302641365277596 0 0 0 22.03591904059506 8.231129845355465 -14.830336198578207 -78.54940094212326 0.14398105950944887 -0.17392999318054025 -60.16149927044221 -19.477038683871037 -6.227810763391438 0.9384928942876128 -48.66807058126143 -16.193610733926498 0 0 0 0 0 0 0 0 0 0 0 0 0 0 0 0 0 0 0 0 0 0 0 0 0 0 0 0 0 0 0 0 0 0 0 0 0 0 0 0 0 0 0 0 0 0 28.070621513549536 0 0 -45.18825051315764 0 0 0 0 0 0 0 0 0 0 -25.890347514246066 6.702176513924334 14.647968735315535 77.01211361671393 0.2584596903842032 0.03712365858045145 53.99832758497124 -18.835645832790608 5.901925971933868 2.1399228474035517 -49.41071324729564 25.115048309879928 0 0 0 0 0 0 0 0 0 0 0 0 0 0 0 0 0 0 0 0 0 0 0 0 0 0 0 0 0 0 0 0 0 0 0 0 0 0 0 0 0 0 0 0 0
-7.0086626503203195 -9.359486130993558 -0.826871497992443 0 3.5002310463002773 -89.99999999999999 -75.26637489355385 -77.35311505835689 70.75373806627498 45.84648275587234 60.84488678534191 31.38691772350587 -22.903862823798043 36.72197244198508 5.433313330643081 0 0 0 42.504917195656176 -66.0555394739995 -109.50798917346287 -2.6258158117709236 81.29694232491612 88.53866708782768 39.080505732453055 43.52130106192663 17.929037711602238 0 0 0 -0.21659024542886948 -9.94391444329784 0.010158664734519748 -1.0676994940570168 3.5345433190793027 0.12433165304781658 0 0 0 20.73147979805649 7.5774023842972476 -15.07140210966385 -78.09062870138726 0.17286628035726959 -0.22655113209876748 -57.790162793651554 -19.230602529598624 -6.129718458265165 -0.8450911186946943 -48.47842560761722 -16.217670961148514 0 0 0 0 0 0 0 0 0 0 0 0 0 0 0 0 0 0 0 0 0 0 0 0 0 0 0 0 0 0 0 0 0 0 0 0 0 0 0 0 0 0 0 0 0 0 30.480926407073632 0 0 -48.548728530520506 0 0 0 0 0 0 0 0 0 0 -24.237861717804908 6.195488696115207 14.905129465895715 76.6927558066854 0.2774244516832931 0.10127171506774262 52.19598089873334 -18.657317535063104 5.811551463274947 3.6688560011868345 -49.22503828899011 24.306202957056136 0 0 0 0 0 0 0 0 0 0 0 0 0 0 0 0 0 0 0 0 0 0 0 0 0 0 0 0 0 0 0 0 0 0 0 0 0 0 0 0 0 0 0 0 0
-6.960399546917247 -9.324444030875023 -0.9124341489080063 0 3.5002310463002773 -89.99999999999999 -72.00230173751126 -76.96644527604214 67.55277987893723 44.10968861969073 59.22883311581655 29.393507978104928 -23.278685013082303 37.756118107908435 5.0273472859967026 0 0 0 42.18483379501011 -66.13823847798119 -108.12988312250084 -15.880393724267188 80.85941478081952 76.10918936733823 39.080505732453055 43.52130106192663 17.929037711602238 0 0 0 -0.21659024542886948 -9.94391444329784 0.010158664734519748 -1.0689820106547 4.535350804277445 0.10559050800752827 0 0 0 19.430672496056665 6.917887287316403 -15.2972346210586 -77.63188025026096 0.2021733252826456 -0.27894333069890326 -55.41657336663324 -18.9876740309989 -6.020815698208542 -2.6243876454124715 -48.289143076129115 -16.250557453549398 0 0 0 0 0 0 0 0 0 0 0 0 0 0 0 0 0 0 0 0 0 0 0 0 0 0 0 0 0 0 0 0 0 0 0 0 0 0 0 0 0 0 0 0 0 0 32.896583130246974 0 0 -51.923833987354406 0 0 0 0 0 0 0 0 0 0 -22.587349848650298 5.681067691810431 15.147526819227597 76.37340651336667 0.2967473795388647 0.16531570434083276 50.39285717204274 -18.4815367586992 5.715272716514147 5.188378560816228 -49.02531206459838 23.507980826270135 0 0 0 0 0 0 0 0 0 0 0 0 0 0 0 0 0 0 0 0 0 0 0 0 0 0 0 0 0 0 0 0 0 0 0 0 0 0 0 0 0 0 0 0 0
-6.863873071718831 -9.254360635814765 -1.083559450739133 0 3.5002310463002773 -89.99999999999999 -66.05453607562374 -76.0803799792551 61.73142221924768 41.162638149473985 55.91395740425161 25.926507648292418 -24.073743299328267 39.818402087160194 4.170796921455048 0 0 0 41.527069675791296 -66.29417971614569 -105.35633386632159 -35.77379837618546 78.94238708463767 55.95433822945736 39.080505732453055 43.52130106192663 17.929037711602238 0 0 0 -0.21659024542886948 -9.94391444329784 0.010158664734519748 -1.0725412788223334 6.537500640648621 0.06793022872745044 0 0 0 16.84036248434207 5.583736724577416 -15.702863701580222 -76.71442477371316 0.2620448029508382 -0.3830217681450814 -50.67057859098067 -18.51488163826732 -5.771704171349359 -6.167069116774727 -47.91271621807691 -16.342278053900927 0 0 0 0 0 0 0 0 0 0 0 0 0 0 0 0 0 0 0 0 0 0 0 0 0 0 0 0 0 0 0 0 0 0 0 0 0 0 0 0 0 0 0 0 0 0 37.73545654473006 0 0 -58.694634039378364 0 0 0 0 0 0 0 0 0 0 -19.294330039529573 4.631656690680097 15.58698032097671 75.73483219550576 0.33646278861675627 0.29307974767657347 46.78784314919076 -18.13871918402735 5.50558606534343 8.195893236371758 -48.58477619681297 21.946517870575573 0 0 0 0 0 0 0 0 0 0 0 0 0 0 0 0 0 0 0 0 0 0 0 0 0 0 0 0 0 0 0 0 0 0 0 0 0 0 0 0 0 0 0 0 0
-6.8156099683157585 -9.219318804088502 -1.1691221016546964 0 3.5002310463002773 -89.99999999999999 -63.36447825084742 -75.58799036317934 59.104663829542126 39.90984697561688 54.22435896950177 24.41032574241658 -24.495638247023262 40.845866787119554 3.7185409956956406 0 0 0 41.189816838232055 -66.36728681600128 -103.96171561038332 -41.25455984102497 77.87726828188605 49.4821295768999 39.080505732453055 43.52130106192663 17.929037711602238 0 0 0 -0.21659024542886948 -9.94391444329784 0.010158664734519748 -1.0748242793034979 7.538536484679687 0.04899506029604959 0 0 0 15.551009046977693 4.910233946746758 -15.882528916082965 -76.25580725251406 0.2926029206836931 -0.4346963207054692 -48.30214750873552 -18.286262635371603 -5.632188066464675 -7.9289320017909075 -47.72613615368089 -16.400816105963806 0 0 0 0 0 0 0 0 0 0 0 0 0 0 0 0 0 0 0 0 0 0 0 0 0 0 0 0 0 0 0 0 0 0 0 0 0 0 0 0 0 0 0 0 0 0 40.154341725181844 0 0 -62.07857339731642 0 0 0 0 0 0 0 0 0 0 -17.652828976308083 4.098026347412273 15.783598943767021 75.41560859561835 0.3568542114721433 0.3567930752426675 44.9876796434835 -17.972191607414633 5.392511418572297 9.6823695212826 -48.34453346378539 21.1846716795801 0 0 0 0 0 0 0 0 0 0 0 0 0 0 0 0 0 0 0 0 0 0 0 0 0 0 0 0 0 0 0 0 0 0 0 0 0 0 0 0 0 0 0 0 0
-6.767346864912686 -9.184276703969966 -1.254685020962531 0 3.5002310463002773 -89.99999999999999 -60.854308049319464 -75.06702834460151 56.65784591608364 38.78076558212625 52.51849776475709 23.01554161737489 -24.934997115598822 41.87043993529233 3.249077792325372 0 0 0 40.84738400357595 -66.43704506291688 -102.56243919733582 -45.730973995332505 76.70543206502049 44.01294018203234 39.080505732453055 43.52130106192663 17.929037711602238 0 0 0 -0.21659024542886948 -9.94391444329784 0.010158664734519748 -1.0774472394156118 8.539342598918433 0.02997660587909443 0 0 0 14.265611528687007 4.233206730160295 -16.04670906946099 -75.79710659612259 0.3235721668450258 -0.4861254466192209 -45.93937713385454 -18.063604011483573 -5.483237594212862 -9.683505281044233 -47.54098088552682 -16.46755773156942 0 0 0 0 0 0 0 0 0 0 0 0 0 0 0 0 0 0 0 0 0 0 0 0 0 0 0 0 0 0 0 0 0 0 0 0 0 0 0 0 0 0 0 0 0 0 42.5700161123488 0 0 -65.45366199509654 0 0 0 0 0 0 0 0 0 0 -16.01531024325785 3.5593701627861707 15.964581544123535 75.09634659614036 0.3775992562108817 0.42039146304285524 43.19024833898375 -17.809250009064108 5.274198529835191 11.156402745324572 -48.09137604872837 20.436264428738223 0 0 0 0 0 0 0 0 0 0 0 0 0 0 0 0 0 0 0 0 0 0 0 0 0 0 0 0 0 0 0 0 0 0 0 0 0 0 0 0 0 0 0 0 0
